<svg xmlns="http://www.w3.org/2000/svg" xmlns:xlink="http://www.w3.org/1999/xlink" width="500" zoomAndPan="magnify" viewBox="0 0 375 374.999991" height="500" preserveAspectRatio="xMidYMid meet" version="1.0"><defs><g/></defs><path fill="#f9e8de" d="M 374.847656 203.84375 C 374.847656 204.363281 374.847656 204.878906 374.839844 205.390625 C 374.585938 217.769531 372.820312 230.0625 369.210938 241.921875 C 368.046875 245.753906 366.707031 249.5625 365.160156 253.28125 C 360.339844 264.914062 352.996094 275.757812 343.734375 284.4375 C 338.207031 289.640625 331.996094 294.058594 325.21875 297.421875 C 304.445312 307.777344 285.167969 300.074219 263.097656 299.910156 C 248.539062 299.835938 233.867188 300.660156 219.5625 303.625 L 13.515625 303.625 C 10.824219 297.355469 8.546875 290.957031 6.679688 284.4375 C 2.691406 270.597656 0.585938 256.300781 0.269531 241.921875 C -0.0273438 227.597656 1.476562 213.207031 4.777344 199.144531 C 49.90625 198.890625 117.242188 198.457031 117.242188 198.457031 C 117.242188 194.84375 104.824219 194.15625 96.003906 193.808594 C 87.320312 193.46875 82.515625 193.128906 82.515625 193.121094 C 82.640625 193.121094 78.507812 179.703125 67.957031 179.703125 C 57.394531 179.703125 55.800781 184.949219 55.800781 184.949219 C 55.800781 184.949219 51.722656 164.480469 45.035156 164.480469 C 38.363281 164.480469 37.292969 181.769531 37.292969 181.769531 C 37.292969 181.769531 31.628906 172.21875 23.132812 175.832031 C 15.449219 179.101562 15.714844 187.097656 15.714844 187.097656 C 15.714844 187.097656 12.105469 183.453125 8.8125 184.769531 C 12.214844 174.394531 16.628906 164.285156 22.046875 154.625 C 65.578125 76.917969 161.054688 20.382812 251 40.722656 C 251.832031 40.925781 252.644531 41.113281 253.484375 41.324219 C 253.996094 41.417969 254.511719 41.554688 255.023438 41.699219 C 257.671875 42.355469 260.3125 43.117188 262.925781 43.941406 C 269.75 46.09375 276.40625 48.75 282.773438 51.921875 C 287.800781 54.445312 292.636719 57.257812 297.289062 60.390625 C 302.65625 64.035156 307.824219 67.824219 312.722656 71.792969 C 316.621094 74.921875 320.363281 78.140625 323.921875 81.511719 C 329.863281 87.085938 335.339844 93 340.339844 99.339844 C 339.421875 99.109375 338.445312 98.980469 337.410156 98.980469 C 326.851562 98.980469 325.253906 104.230469 325.253906 104.230469 C 325.253906 104.230469 321.179688 83.765625 314.507812 83.765625 C 307.816406 83.765625 306.746094 101.046875 306.746094 101.046875 C 306.746094 101.046875 301.085938 91.496094 292.585938 95.117188 C 284.90625 98.386719 285.167969 106.382812 285.167969 106.382812 C 285.167969 106.382812 281.542969 102.710938 278.222656 104.0625 C 272.542969 106.382812 273.410156 113.09375 273.410156 113.09375 C 273.410156 113.09375 266.195312 107.070312 262.59375 113.433594 C 262.59375 113.433594 200.597656 111.71875 199.9375 114.980469 C 199.265625 118.25 218.375 118.589844 236.40625 118.589844 C 248.546875 118.589844 312.410156 118.199219 352.886719 117.945312 C 353.320312 118.710938 353.742188 119.484375 354.167969 120.257812 C 357.648438 126.585938 360.703125 133.28125 363.3125 140.375 C 368.371094 154.097656 371.996094 168.625 373.71875 183.339844 C 374.542969 190.136719 374.925781 197.011719 374.847656 203.84375 Z M 374.847656 203.84375 " fill-opacity="1" fill-rule="nonzero"/><path fill="#efbf62" d="M 292.121094 290.660156 C 282.257812 309.425781 211.21875 324.730469 193.46875 321.761719 C 184.757812 320.3125 169.1875 320.285156 150.214844 320.980469 C 142.660156 321.253906 134.578125 321.652344 126.164062 322.113281 C 112.609375 322.859375 98.238281 323.792969 83.949219 324.730469 C 38.566406 327.695312 11.433594 311.398438 10.941406 306.945312 C 10.441406 302.511719 24.753906 264.488281 48.429688 241.277344 C 72.105469 218.074219 86.417969 212.152344 126.878906 209.1875 C 167.328125 206.222656 226.523438 231.40625 226.523438 231.40625 C 226.523438 231.40625 301.992188 271.890625 292.121094 290.660156 Z M 292.121094 290.660156 " fill-opacity="1" fill-rule="nonzero"/><path fill="#563025" d="M 162.027344 161.523438 L 167.449219 158.464844 L 254.410156 312.984375 L 248.988281 316.042969 Z M 162.027344 161.523438 " fill-opacity="1" fill-rule="nonzero"/><path fill="#563025" d="M 241.457031 121.71875 L 226.941406 95.941406 L 210.820312 102.480469 L 223.527344 89.875 L 224.273438 85.386719 L 221.574219 86.40625 L 202.355469 52.261719 L 52.835938 136.550781 L 52.761719 136.296875 L 48.949219 134.675781 L 48.199219 139.160156 L 55.390625 151.9375 L 67.269531 147.351562 L 62.328125 155.175781 L 60.367188 154.972656 L 59.617188 159.457031 L 72.597656 182.507812 L 89.304688 169.847656 L 77.855469 182.882812 L 75.527344 181.898438 L 74.78125 186.382812 L 89.304688 212.195312 L 241.507812 126.390625 L 241.542969 126.425781 L 243.460938 125.285156 L 244.207031 120.800781 Z M 241.457031 121.71875 " fill-opacity="1" fill-rule="nonzero"/><path fill="#a05839" d="M 224.273438 85.386719 L 211.566406 97.996094 L 227.6875 91.453125 L 244.207031 120.800781 L 90.054688 207.707031 L 75.527344 181.898438 L 90.054688 165.371094 L 73.347656 178.03125 L 60.367188 154.972656 L 68.015625 142.863281 L 56.136719 147.453125 L 48.949219 134.675781 L 203.101562 47.773438 Z M 224.273438 85.386719 " fill-opacity="1" fill-rule="nonzero"/><path fill="#f9e8de" d="M 122.058594 140.578125 L 108.984375 147.945312 L 105.960938 142.574219 L 108.347656 118.046875 L 115.773438 113.859375 L 125.460938 131.070312 L 128.652344 129.269531 L 131.894531 135.03125 L 128.703125 136.832031 L 131.554688 141.894531 L 124.902344 145.644531 Z M 119.28125 134.546875 L 113.710938 124.65625 L 112.746094 138.234375 Z M 119.28125 134.546875 " fill-opacity="1" fill-rule="nonzero"/><path fill="#f9e8de" d="M 132.625 103.078125 C 140.714844 98.515625 146.972656 102.992188 151.667969 111.316406 C 156.402344 119.730469 156.980469 127.402344 148.882812 131.964844 C 140.792969 136.527344 134.535156 132.050781 129.800781 123.644531 C 125.113281 115.3125 124.535156 107.640625 132.625 103.078125 Z M 136.132812 109.304688 C 132.203125 111.523438 133.882812 115.601562 136.335938 119.957031 C 138.875 124.480469 141.445312 127.953125 145.375 125.738281 C 149.308594 123.519531 147.667969 119.515625 145.128906 115.003906 C 142.675781 110.636719 140.0625 107.085938 136.132812 109.304688 Z M 136.132812 109.304688 " fill-opacity="1" fill-rule="nonzero"/><path fill="#f9e8de" d="M 173.765625 111.429688 L 160.691406 118.796875 L 157.667969 113.425781 L 160.054688 88.894531 L 167.484375 84.707031 L 177.167969 101.921875 L 180.359375 100.121094 L 183.601562 105.878906 L 180.410156 107.683594 L 183.265625 112.746094 L 176.609375 116.492188 Z M 170.988281 105.394531 L 165.417969 95.507812 L 164.453125 109.082031 Z M 170.988281 105.394531 " fill-opacity="1" fill-rule="nonzero"/><path fill="#f9e8de" d="M 94.050781 180.042969 L 90.621094 181.972656 L 92.082031 184.566406 L 95.128906 182.847656 L 95.792969 184.03125 L 92.742188 185.746094 L 94.261719 188.457031 L 97.691406 186.527344 L 98.355469 187.707031 L 93.480469 190.453125 L 88.507812 181.609375 L 93.378906 178.855469 Z M 94.050781 180.042969 " fill-opacity="1" fill-rule="nonzero"/><path fill="#f9e8de" d="M 99.492188 175.441406 C 101.589844 174.257812 103.296875 174.886719 104.101562 176.324219 C 104.6875 177.367188 104.757812 178.796875 103.484375 180.003906 L 107.726562 182.433594 L 106.003906 183.410156 L 101.980469 181.023438 L 100.875 181.640625 L 102.863281 185.175781 L 101.410156 185.992188 L 96.4375 177.164062 Z M 100.15625 176.621094 L 98.558594 177.523438 L 100.222656 180.476562 L 101.820312 179.578125 C 102.949219 178.941406 103.109375 178.03125 102.609375 177.15625 C 102.117188 176.265625 101.285156 175.984375 100.15625 176.621094 Z M 100.15625 176.621094 " fill-opacity="1" fill-rule="nonzero"/><path fill="#f9e8de" d="M 108.78125 170.199219 C 110.875 169.015625 112.582031 169.644531 113.390625 171.082031 C 113.976562 172.125 114.042969 173.554688 112.769531 174.761719 L 117.015625 177.191406 L 115.292969 178.167969 L 111.265625 175.78125 L 110.164062 176.398438 L 112.148438 179.933594 L 110.699219 180.75 L 105.730469 171.921875 Z M 109.441406 171.378906 L 107.847656 172.277344 L 109.511719 175.234375 L 111.105469 174.335938 C 112.234375 173.699219 112.394531 172.789062 111.902344 171.914062 C 111.402344 171.03125 110.578125 170.742188 109.441406 171.378906 Z M 109.441406 171.378906 " fill-opacity="1" fill-rule="nonzero"/><path fill="#f9e8de" d="M 124.070312 173.332031 C 121.582031 174.734375 118.507812 174.003906 117.015625 171.351562 C 115.527344 168.710938 116.496094 165.703125 118.984375 164.300781 C 121.496094 162.882812 124.542969 163.628906 126.03125 166.273438 C 127.523438 168.921875 126.582031 171.914062 124.070312 173.332031 Z M 123.363281 172.074219 C 125.113281 171.089844 125.671875 169.101562 124.554688 167.105469 C 123.433594 165.109375 121.453125 164.582031 119.707031 165.566406 C 117.957031 166.554688 117.386719 168.515625 118.507812 170.511719 C 119.628906 172.5 121.605469 173.0625 123.363281 172.074219 Z M 123.363281 172.074219 " fill-opacity="1" fill-rule="nonzero"/><path fill="#f9e8de" d="M 129.296875 158.632812 C 131.394531 157.453125 133.101562 158.082031 133.90625 159.519531 C 134.492188 160.5625 134.5625 161.988281 133.289062 163.195312 L 137.53125 165.625 L 135.808594 166.605469 L 131.785156 164.214844 L 130.683594 164.835938 L 132.667969 168.371094 L 131.214844 169.1875 L 126.25 160.359375 Z M 129.960938 159.816406 L 128.363281 160.714844 L 130.027344 163.671875 L 131.625 162.773438 C 132.753906 162.132812 132.914062 161.226562 132.421875 160.351562 C 131.921875 159.46875 131.089844 159.179688 129.960938 159.816406 Z M 129.960938 159.816406 " fill-opacity="1" fill-rule="nonzero"/><path fill="#f9e8de" d="M 147.355469 148.4375 L 152.328125 157.285156 L 150.878906 158.097656 L 142.8125 153.960938 L 146.523438 160.554688 L 145.070312 161.371094 L 140.097656 152.523438 L 141.539062 151.710938 L 149.597656 155.839844 L 145.894531 149.253906 Z M 147.355469 148.4375 " fill-opacity="1" fill-rule="nonzero"/><path fill="#f9e8de" d="M 159.578125 153.316406 C 157.089844 154.71875 154.019531 153.988281 152.523438 151.335938 C 151.039062 148.695312 152.007812 145.6875 154.492188 144.285156 C 157.007812 142.863281 160.054688 143.613281 161.539062 146.253906 C 163.035156 148.90625 162.09375 151.898438 159.578125 153.316406 Z M 158.875 152.058594 C 160.625 151.074219 161.183594 149.085938 160.0625 147.085938 C 158.941406 145.089844 156.964844 144.5625 155.214844 145.550781 C 153.46875 146.535156 152.898438 148.5 154.019531 150.496094 C 155.140625 152.492188 157.117188 153.042969 158.875 152.058594 Z M 158.875 152.058594 " fill-opacity="1" fill-rule="nonzero"/><path fill="#f9e8de" d="M 161.300781 140.589844 L 167.457031 137.113281 L 168.121094 138.292969 L 165.769531 139.621094 L 170.070312 147.265625 L 168.621094 148.082031 L 164.316406 140.433594 L 161.957031 141.769531 Z M 161.300781 140.589844 " fill-opacity="1" fill-rule="nonzero"/><path fill="#f9e8de" d="M 174.757812 133.007812 L 179.953125 130.078125 L 180.617188 131.257812 L 176.871094 133.375 L 178.339844 135.984375 L 181.261719 134.335938 L 181.921875 135.515625 L 179.003906 137.164062 L 181.175781 141.03125 L 179.722656 141.84375 Z M 174.757812 133.007812 " fill-opacity="1" fill-rule="nonzero"/><path fill="#f9e8de" d="M 191.609375 135.253906 C 189.121094 136.652344 186.046875 135.921875 184.554688 133.273438 C 183.070312 130.628906 184.035156 127.621094 186.523438 126.222656 C 189.035156 124.800781 192.085938 125.550781 193.570312 128.191406 C 195.0625 130.851562 194.121094 133.84375 191.609375 135.253906 Z M 190.902344 133.996094 C 192.652344 133.007812 193.214844 131.019531 192.085938 129.023438 C 190.964844 127.027344 188.992188 126.5 187.238281 127.488281 C 185.488281 128.472656 184.917969 130.433594 186.039062 132.429688 C 187.160156 134.429688 189.148438 134.988281 190.902344 133.996094 Z M 190.902344 133.996094 " fill-opacity="1" fill-rule="nonzero"/><path fill="#f9e8de" d="M 193.773438 122.285156 L 195.214844 121.472656 L 198.382812 127.105469 C 199.15625 128.480469 200.292969 128.683594 201.515625 128.003906 C 202.746094 127.308594 203.152344 126.230469 202.382812 124.851562 L 199.214844 119.21875 L 200.660156 118.402344 L 203.808594 124.011719 C 205.074219 126.261719 204.046875 128.242188 202.210938 129.28125 C 200.359375 130.324219 198.179688 130.144531 196.914062 127.894531 Z M 193.773438 122.285156 " fill-opacity="1" fill-rule="nonzero"/><path fill="#f9e8de" d="M 211.058594 112.523438 L 216.03125 121.371094 L 214.582031 122.183594 L 206.515625 118.046875 L 210.226562 124.640625 L 208.773438 125.457031 L 203.800781 116.613281 L 205.242188 115.796875 L 213.296875 119.925781 L 209.613281 113.339844 Z M 211.058594 112.523438 " fill-opacity="1" fill-rule="nonzero"/><path fill="#f9e8de" d="M 224.308594 110.925781 C 225.835938 113.644531 224.921875 116.355469 222.09375 117.953125 L 219.207031 119.578125 L 214.242188 110.75 L 217.128906 109.125 C 219.953125 107.527344 222.773438 108.199219 224.308594 110.925781 Z M 221.421875 116.773438 C 223.503906 115.601562 223.953125 113.773438 222.824219 111.769531 C 221.6875 109.746094 219.871094 109.132812 217.789062 110.308594 L 216.355469 111.113281 L 219.996094 117.578125 Z M 221.421875 116.773438 " fill-opacity="1" fill-rule="nonzero"/><path fill="#563025" d="M 96.039062 195.550781 C 96.039062 195.550781 96.851562 195.050781 98.269531 194.164062 C 99.703125 193.308594 101.726562 192.042969 104.1875 190.589844 C 106.65625 189.144531 109.511719 187.417969 112.609375 185.636719 C 115.699219 183.84375 119.019531 181.957031 122.328125 180.078125 C 125.65625 178.21875 128.976562 176.347656 132.117188 174.640625 C 135.25 172.917969 138.195312 171.363281 140.714844 170.003906 C 143.230469 168.644531 145.359375 167.574219 146.835938 166.789062 C 148.324219 166.035156 149.171875 165.601562 149.171875 165.601562 C 149.171875 165.601562 148.355469 166.101562 146.9375 166.984375 C 145.503906 167.84375 143.484375 169.109375 141.023438 170.5625 C 138.550781 172.007812 135.699219 173.730469 132.601562 175.515625 C 129.511719 177.308594 126.191406 179.195312 122.878906 181.074219 C 119.550781 182.933594 116.226562 184.804688 113.09375 186.511719 C 109.960938 188.234375 107.003906 189.789062 104.492188 191.148438 C 101.980469 192.507812 99.847656 193.578125 98.371094 194.359375 C 96.886719 195.117188 96.039062 195.550781 96.039062 195.550781 Z M 96.039062 195.550781 " fill-opacity="1" fill-rule="nonzero"/><path fill="#563025" d="M 174.179688 80.714844 C 174.179688 80.714844 174.511719 80.484375 175.097656 80.070312 C 175.691406 79.679688 176.523438 79.089844 177.550781 78.445312 C 178.585938 77.808594 179.773438 77.027344 181.082031 76.253906 C 182.382812 75.464844 183.789062 74.664062 185.191406 73.859375 C 186.609375 73.078125 188.027344 72.285156 189.367188 71.582031 C 190.707031 70.867188 191.992188 70.253906 193.070312 69.695312 C 194.15625 69.140625 195.089844 68.742188 195.726562 68.429688 C 196.378906 68.140625 196.753906 67.976562 196.753906 67.976562 C 196.753906 67.976562 196.421875 68.207031 195.835938 68.625 C 195.242188 69.015625 194.410156 69.609375 193.382812 70.246094 C 192.347656 70.882812 191.160156 71.664062 189.851562 72.4375 C 188.550781 73.230469 187.144531 74.027344 185.742188 74.835938 C 184.324219 75.617188 182.90625 76.40625 181.566406 77.113281 C 180.226562 77.824219 178.941406 78.4375 177.863281 79 C 176.777344 79.550781 175.84375 79.949219 175.207031 80.265625 C 174.554688 80.542969 174.179688 80.714844 174.179688 80.714844 Z M 174.179688 80.714844 " fill-opacity="1" fill-rule="nonzero"/><path fill="#563025" d="M 80.875 150.859375 C 80.875 150.859375 81.207031 150.628906 81.792969 150.214844 C 82.386719 149.824219 83.21875 149.238281 84.246094 148.589844 C 85.28125 147.953125 86.46875 147.171875 87.777344 146.398438 C 89.078125 145.609375 90.484375 144.8125 91.886719 144.003906 C 93.304688 143.222656 94.722656 142.433594 96.0625 141.726562 C 97.40625 141.011719 98.6875 140.402344 99.765625 139.839844 C 100.851562 139.289062 101.785156 138.890625 102.421875 138.574219 C 103.074219 138.285156 103.449219 138.125 103.449219 138.125 C 103.449219 138.125 103.117188 138.351562 102.53125 138.769531 C 101.9375 139.160156 101.105469 139.753906 100.078125 140.390625 C 99.042969 141.03125 97.855469 141.8125 96.546875 142.585938 C 95.25 143.375 93.839844 144.171875 92.4375 144.980469 C 91.019531 145.761719 89.601562 146.550781 88.261719 147.257812 C 86.921875 147.972656 85.636719 148.582031 84.558594 149.144531 C 83.472656 149.695312 82.539062 150.09375 81.902344 150.410156 C 81.25 150.699219 80.875 150.859375 80.875 150.859375 Z M 80.875 150.859375 " fill-opacity="1" fill-rule="nonzero"/><path fill="#efbf62" d="M 259.070312 326.707031 C 254.113281 329.828125 246.203125 329.734375 235.742188 328.417969 C 228.832031 327.53125 220.785156 326.113281 211.738281 324.730469 C 189.046875 321.269531 183.789062 319.128906 181.878906 308.1875 C 177.898438 285.585938 214.828125 299.742188 243.289062 302.019531 C 254.140625 302.882812 258.164062 302.96875 262.050781 307.683594 C 265.480469 311.898438 265.726562 322.503906 259.070312 326.707031 Z M 259.070312 326.707031 " fill-opacity="1" fill-rule="nonzero"/><path fill="#efbf62" d="M 152.515625 329.164062 C 153.414062 337.472656 145.664062 338.507812 130.375 336.292969 C 129.757812 336.222656 128.992188 336.15625 128.296875 336.011719 C 111.625 333.445312 109.203125 306.929688 109.203125 306.929688 L 115.292969 254.097656 C 115.292969 254.097656 140.402344 266.835938 140.054688 281.796875 C 139.707031 296.683594 130.097656 310.046875 137.082031 318.910156 C 137.082031 318.910156 138.1875 319.042969 139.851562 319.394531 C 144.078125 320.300781 151.894531 322.859375 152.515625 329.164062 Z M 152.515625 329.164062 " fill-opacity="1" fill-rule="nonzero"/><path fill="#f9e8de" d="M 152.515625 329.164062 C 153.414062 337.472656 145.664062 338.507812 130.375 336.292969 C 129.757812 335.59375 129.265625 334.769531 128.855469 333.871094 C 124.152344 323.34375 134.59375 320.234375 139.859375 319.402344 C 144.078125 320.300781 151.894531 322.859375 152.515625 329.164062 Z M 152.515625 329.164062 " fill-opacity="1" fill-rule="nonzero"/><path fill="#563025" d="M 139.859375 319.929688 C 139.6875 319.929688 139.519531 319.84375 139.417969 319.691406 C 135.28125 313.480469 136.589844 304.949219 137.984375 295.910156 C 138.6875 291.320312 139.417969 286.570312 139.535156 281.753906 C 139.773438 272.007812 128.558594 263.097656 121.84375 258.644531 C 118.023438 256.113281 115.0625 254.601562 115.027344 254.589844 C 114.765625 254.457031 114.664062 254.140625 114.789062 253.878906 C 114.925781 253.613281 115.238281 253.511719 115.503906 253.640625 C 115.527344 253.65625 118.550781 255.1875 122.421875 257.761719 C 137.675781 267.871094 140.714844 276.402344 140.582031 281.78125 C 140.460938 286.664062 139.722656 291.441406 139.011719 296.070312 C 137.59375 305.28125 136.371094 313.234375 140.273438 319.105469 C 140.4375 319.351562 140.367188 319.671875 140.128906 319.835938 C 140.0625 319.902344 139.960938 319.929688 139.859375 319.929688 Z M 139.859375 319.929688 " fill-opacity="1" fill-rule="nonzero"/><path fill="#efbf62" d="M 305.09375 315.222656 C 301.730469 319.707031 295.023438 323.503906 288.128906 325.984375 C 279.082031 329.214844 269.71875 330.175781 266.984375 327.4375 C 262.164062 322.636719 259.9375 313.378906 265.871094 307.4375 C 267.6875 305.621094 271.167969 303.503906 275.3125 301.246094 C 284.675781 296.078125 297.410156 290.070312 301.753906 284.863281 C 301.746094 284.863281 312.84375 304.839844 305.09375 315.222656 Z M 305.09375 315.222656 " fill-opacity="1" fill-rule="nonzero"/><path fill="#efbf62" d="M 35.109375 295.59375 C 35.109375 295.59375 26.722656 310.15625 44.484375 312.382812 C 62.242188 314.609375 80 303.742188 99.730469 305.96875 C 119.460938 308.195312 143.882812 334.109375 135.742188 344.484375 C 127.601562 354.847656 118.96875 335.347656 100.46875 334.117188 C 81.972656 332.886719 49.414062 344.234375 27.460938 338.3125 C 5.507812 332.390625 4.769531 321.773438 10.933594 306.960938 " fill-opacity="1" fill-rule="nonzero"/><path fill="#563025" d="M 135.75 345 C 135.632812 345 135.519531 344.96875 135.425781 344.890625 C 135.199219 344.710938 135.15625 344.378906 135.335938 344.144531 C 137.769531 341.03125 136.777344 336.769531 135.503906 333.734375 C 130.792969 322.46875 114.121094 308.109375 99.679688 306.488281 C 89.738281 305.367188 80.214844 307.617188 71.011719 309.800781 C 61.867188 311.96875 53.242188 314.007812 44.414062 312.910156 C 38.796875 312.203125 35.128906 310.207031 33.515625 306.960938 C 30.96875 301.839844 34.5 295.601562 34.652344 295.339844 C 34.796875 295.085938 35.121094 295 35.375 295.144531 C 35.628906 295.289062 35.714844 295.613281 35.570312 295.867188 C 35.535156 295.925781 32.171875 301.890625 34.464844 306.496094 C 35.910156 309.402344 39.304688 311.203125 44.550781 311.863281 C 53.175781 312.945312 61.722656 310.921875 70.765625 308.78125 C 80.050781 306.582031 89.664062 304.3125 99.789062 305.449219 C 114.578125 307.117188 131.648438 321.8125 136.472656 333.34375 C 138.449219 338.066406 138.339844 342.035156 136.15625 344.8125 C 136.054688 344.933594 135.902344 345 135.75 345 Z M 135.75 345 " fill-opacity="1" fill-rule="nonzero"/><path fill="#f9e8de" d="M 259.070312 326.707031 C 254.113281 329.828125 246.203125 329.734375 235.742188 328.417969 C 225.464844 309.300781 243.289062 302.019531 243.289062 302.019531 C 254.140625 302.882812 258.164062 302.96875 262.050781 307.683594 C 265.480469 311.898438 265.726562 322.503906 259.070312 326.707031 Z M 259.070312 326.707031 " fill-opacity="1" fill-rule="nonzero"/><path fill="#f9e8de" d="M 288.121094 325.984375 C 279.074219 329.214844 269.710938 330.175781 266.976562 327.4375 C 262.152344 322.636719 259.929688 313.378906 265.863281 307.4375 C 267.679688 305.621094 271.160156 303.503906 275.304688 301.246094 C 277.347656 301.433594 290.855469 303.480469 288.121094 325.984375 Z M 288.121094 325.984375 " fill-opacity="1" fill-rule="nonzero"/><path fill="#563025" d="M 207.867188 324.675781 C 207.839844 324.675781 207.824219 324.675781 207.796875 324.667969 C 207.484375 324.625 176.097656 320.257812 175.019531 295.679688 C 175.011719 295.390625 175.234375 295.144531 175.53125 295.128906 C 175.808594 295.136719 176.066406 295.339844 176.082031 295.636719 C 177.117188 319.324219 207.628906 323.582031 207.933594 323.625 C 208.222656 323.65625 208.425781 323.929688 208.390625 324.21875 C 208.359375 324.480469 208.128906 324.675781 207.867188 324.675781 Z M 207.867188 324.675781 " fill-opacity="1" fill-rule="nonzero"/><path fill="#efbf62" d="M 276.78125 204.742188 C 276.78125 204.742188 293.84375 172.585938 304.199219 174.285156 C 314.558594 175.992188 314.558594 220.53125 314.558594 220.53125 Z M 276.78125 204.742188 " fill-opacity="1" fill-rule="nonzero"/><path fill="#563025" d="M 291.296875 209.050781 C 291.296875 209.050781 297.742188 177.214844 305.042969 178.847656 C 312.339844 180.476562 312.011719 216.308594 312.011719 216.308594 Z M 291.296875 209.050781 " fill-opacity="1" fill-rule="nonzero"/><path fill="#efbf62" d="M 243.1875 207.707031 C 243.1875 207.707031 220.769531 179.035156 210.863281 182.527344 C 200.957031 186.019531 208.757812 229.867188 208.757812 229.867188 Z M 243.1875 207.707031 " fill-opacity="1" fill-rule="nonzero"/><path fill="#563025" d="M 229.648438 214.496094 C 229.648438 214.496094 217.738281 184.285156 210.835938 187.164062 C 203.933594 190.046875 210.53125 225.269531 210.53125 225.269531 Z M 229.648438 214.496094 " fill-opacity="1" fill-rule="nonzero"/><path fill="#efbf62" d="M 267.953125 300.539062 C 210.804688 305.585938 200.792969 247.4375 208.375 226.503906 C 211.40625 218.132812 220.148438 211.8125 229.546875 207.242188 C 248.332031 198.109375 270.046875 196.1875 290.144531 201.890625 C 300.195312 204.742188 309.90625 209.433594 314.355469 217.140625 C 325.472656 236.417969 325.796875 295.425781 268.648438 300.472656 Z M 267.953125 300.539062 " fill-opacity="1" fill-rule="nonzero"/><path fill="#563025" d="M 275.304688 301.773438 C 275.074219 301.773438 274.863281 301.617188 274.792969 301.390625 C 274.710938 301.109375 274.871094 300.8125 275.152344 300.734375 C 295.277344 294.855469 301.96875 286.632812 302.035156 286.554688 C 302.214844 286.324219 302.554688 286.292969 302.78125 286.46875 C 303.011719 286.648438 303.054688 286.980469 302.867188 287.207031 C 302.597656 287.558594 295.949219 295.765625 275.449219 301.753906 C 275.40625 301.773438 275.355469 301.773438 275.304688 301.773438 Z M 275.304688 301.773438 " fill-opacity="1" fill-rule="nonzero"/><path fill="#563025" d="M 261.167969 301.378906 C 238.730469 301.378906 225.742188 290.9375 218.648438 281.695312 C 204.359375 263.097656 203.773438 237.660156 207.875 226.324219 C 207.976562 226.050781 208.273438 225.90625 208.554688 226.011719 C 208.824219 226.113281 208.96875 226.410156 208.867188 226.691406 C 204.84375 237.804688 205.429688 262.765625 219.480469 281.050781 C 230.421875 295.289062 247.160156 301.855469 267.902344 300.011719 L 268.597656 299.953125 C 268.886719 299.929688 269.148438 300.140625 269.175781 300.4375 C 269.199219 300.726562 268.988281 300.988281 268.691406 301.015625 L 267.996094 301.074219 C 265.632812 301.277344 263.351562 301.378906 261.167969 301.378906 Z M 261.167969 301.378906 " fill-opacity="1" fill-rule="nonzero"/><path fill="#563025" d="M 276.832031 281.167969 C 268.324219 281.167969 265.226562 270.828125 265.203125 270.71875 C 265.117188 270.4375 265.277344 270.140625 265.558594 270.0625 C 265.847656 269.976562 266.136719 270.148438 266.210938 270.421875 C 266.21875 270.445312 267.042969 273.222656 268.96875 275.78125 C 271.5 279.128906 274.648438 280.546875 278.351562 279.996094 C 280.964844 279.605469 283.199219 278.542969 284.988281 276.851562 C 285.203125 276.648438 285.53125 276.65625 285.738281 276.867188 C 285.941406 277.082031 285.933594 277.414062 285.71875 277.617188 C 283.765625 279.460938 281.347656 280.617188 278.511719 281.039062 C 277.925781 281.125 277.367188 281.167969 276.832031 281.167969 Z M 276.832031 281.167969 " fill-opacity="1" fill-rule="nonzero"/><path fill="#563025" d="M 254.4375 283.128906 C 252.433594 283.128906 250.566406 282.738281 248.859375 281.964844 C 248.597656 281.847656 248.476562 281.535156 248.597656 281.261719 C 248.714844 281 249.03125 280.878906 249.300781 281 C 250.964844 281.753906 252.824219 282.109375 254.8125 282.058594 C 258.546875 281.957031 261.40625 280.011719 263.308594 276.273438 C 264.761719 273.417969 265.082031 270.546875 265.082031 270.511719 C 265.117188 270.226562 265.371094 270.011719 265.667969 270.046875 C 265.957031 270.082031 266.167969 270.335938 266.136719 270.632812 C 266.117188 270.75 264.71875 282.867188 254.835938 283.128906 C 254.707031 283.128906 254.574219 283.128906 254.4375 283.128906 Z M 254.4375 283.128906 " fill-opacity="1" fill-rule="nonzero"/><path fill="#563025" d="M 264.53125 261.898438 C 264.496094 261.898438 264.460938 261.90625 264.4375 261.90625 C 264.402344 261.90625 264.371094 261.90625 264.34375 261.914062 C 260.5 262.265625 254.851562 263.011719 254.691406 264.703125 C 254.53125 266.425781 259.894531 272.707031 265.753906 272.1875 L 265.855469 272.179688 C 271.703125 271.660156 275.890625 264.539062 275.429688 262.867188 C 274.980469 261.226562 268.410156 261.558594 264.53125 261.898438 Z M 264.53125 261.898438 " fill-opacity="1" fill-rule="nonzero"/><path fill="#563025" d="M 284.855469 246.28125 C 279.394531 246.28125 275.738281 242.714844 275.675781 242.664062 C 275.472656 242.457031 275.472656 242.117188 275.675781 241.914062 C 275.878906 241.710938 276.21875 241.703125 276.425781 241.914062 C 276.753906 242.246094 284.699219 249.9375 294.753906 240.863281 C 294.964844 240.667969 295.304688 240.683594 295.5 240.902344 C 295.695312 241.125 295.675781 241.457031 295.457031 241.652344 C 291.558594 245.160156 287.917969 246.28125 284.855469 246.28125 Z M 284.855469 246.28125 " fill-opacity="1" fill-rule="nonzero"/><path fill="#563025" d="M 242.289062 250.546875 C 236.832031 250.546875 233.171875 246.980469 233.113281 246.929688 C 232.910156 246.722656 232.910156 246.382812 233.113281 246.179688 C 233.316406 245.976562 233.65625 245.976562 233.859375 246.179688 C 234.191406 246.511719 242.128906 254.199219 252.1875 245.125 C 252.398438 244.929688 252.738281 244.949219 252.933594 245.167969 C 253.128906 245.390625 253.113281 245.722656 252.890625 245.917969 C 248.996094 249.417969 245.355469 250.546875 242.289062 250.546875 Z M 242.289062 250.546875 " fill-opacity="1" fill-rule="nonzero"/><path fill="#563025" d="M 281.128906 171.640625 C 281.058594 171.640625 280.984375 171.632812 280.914062 171.625 L 271.28125 170.113281 C 270.726562 170.027344 270.285156 169.621094 270.160156 169.074219 C 270.03125 168.53125 270.234375 167.972656 270.683594 167.640625 L 280.101562 160.757812 L 271.40625 158.929688 C 270.667969 158.777344 270.191406 158.046875 270.347656 157.308594 C 270.5 156.570312 271.238281 156.09375 271.96875 156.246094 L 283.683594 158.703125 C 284.21875 158.8125 284.625 159.230469 284.742188 159.753906 C 284.855469 160.28125 284.648438 160.835938 284.207031 161.15625 L 274.980469 167.902344 L 281.347656 168.90625 C 282.09375 169.023438 282.613281 169.730469 282.492188 170.476562 C 282.382812 171.15625 281.796875 171.640625 281.128906 171.640625 Z M 281.128906 171.640625 " fill-opacity="1" fill-rule="nonzero"/><path fill="#563025" d="M 264.65625 153.28125 C 264.589844 153.28125 264.515625 153.273438 264.445312 153.265625 L 251.269531 151.199219 C 250.71875 151.113281 250.277344 150.707031 250.148438 150.164062 C 250.023438 149.621094 250.226562 149.058594 250.675781 148.726562 L 264.460938 138.652344 L 251.464844 135.921875 C 250.726562 135.769531 250.25 135.039062 250.40625 134.300781 C 250.558594 133.5625 251.289062 133.085938 252.027344 133.238281 L 268.046875 136.601562 C 268.578125 136.714844 268.988281 137.128906 269.105469 137.65625 C 269.226562 138.183594 269.011719 138.734375 268.570312 139.058594 L 254.972656 149 L 264.878906 150.554688 C 265.625 150.671875 266.144531 151.378906 266.023438 152.125 C 265.90625 152.796875 265.320312 153.28125 264.65625 153.28125 Z M 264.65625 153.28125 " fill-opacity="1" fill-rule="nonzero"/><path fill="#563025" d="M 257.707031 183.824219 C 257.65625 183.824219 257.605469 183.824219 257.550781 183.816406 L 253.042969 183.113281 C 252.65625 183.050781 252.332031 182.753906 252.238281 182.371094 C 252.144531 181.980469 252.289062 181.582031 252.613281 181.34375 L 256.398438 178.574219 L 253.078125 177.878906 C 252.542969 177.769531 252.203125 177.242188 252.316406 176.714844 C 252.425781 176.179688 252.933594 175.839844 253.476562 175.949219 L 258.960938 177.097656 C 259.34375 177.171875 259.640625 177.46875 259.71875 177.851562 C 259.800781 178.234375 259.648438 178.625 259.335938 178.855469 L 255.675781 181.523438 L 257.839844 181.863281 C 258.375 181.949219 258.742188 182.449219 258.664062 182.984375 C 258.597656 183.476562 258.179688 183.824219 257.707031 183.824219 Z M 257.707031 183.824219 " fill-opacity="1" fill-rule="nonzero"/><g fill="#ffffff" fill-opacity="1"><g transform="translate(298.898949, 108.089106)"><g><path d="M 0.125 0 C 0.113281 0 0.101562 -0.00390625 0.09375 -0.015625 C 0.0820312 -0.0234375 0.078125 -0.0351562 0.078125 -0.046875 C 0.078125 -0.0664062 0.0820312 -0.0820312 0.09375 -0.09375 C 0.101562 -0.101562 0.113281 -0.109375 0.125 -0.109375 C 0.144531 -0.109375 0.160156 -0.101562 0.171875 -0.09375 C 0.179688 -0.0820312 0.1875 -0.0664062 0.1875 -0.046875 C 0.1875 -0.0351562 0.179688 -0.0234375 0.171875 -0.015625 C 0.160156 -0.00390625 0.144531 0 0.125 0 Z M 0.125 0 "/></g></g></g></svg>